<svg width="22" height="21" viewBox="0 0 22 21" fill="none" xmlns="http://www.w3.org/2000/svg">
<path d="M15.5 9V6C15.5 3.51472 13.4853 1.5 11 1.5V1.5C8.51472 1.5 6.5 3.51472 6.5 6V7" stroke="#ADE699" stroke-width="1.5" stroke-linecap="round"/>
<path d="M3 11C3 10.0572 3 9.58579 3.29289 9.29289C3.58579 9 4.05719 9 5 9H17C17.9428 9 18.4142 9 18.7071 9.29289C19 9.58579 19 10.0572 19 11V17.0375C19 17.4185 19 17.6091 18.9711 17.7772C18.8575 18.4381 18.4203 18.9981 17.8067 19.2685C17.6506 19.3374 17.4658 19.3836 17.0961 19.476V19.476C15.8589 19.7853 15.2403 19.9399 14.6215 20.0539C12.2273 20.4947 9.7727 20.4947 7.37847 20.0539C6.75968 19.9399 6.14108 19.7853 4.90388 19.476V19.476C4.53423 19.3836 4.34941 19.3374 4.19329 19.2685C3.5797 18.9981 3.14248 18.4381 3.0289 17.7772C3 17.6091 3 17.4185 3 17.0375V11Z" fill="#19730B" fill-opacity="0.66"/>
<circle cx="11" cy="14" r="2" fill="#ADE699"/>
<path d="M11 15V17.5" stroke="#ADE699" stroke-linecap="round"/>
</svg>
