<svg width="140" height="140" viewBox="0 0 140 140" fill="none" xmlns="http://www.w3.org/2000/svg">
<circle cx="70" cy="70" r="50" fill="#DEFFE0"/>
<circle cx="70" cy="70" r="58.75" stroke="#003709" stroke-opacity="0.25" stroke-width="0.5"/>
<circle cx="70" cy="70" r="69.9" stroke="#003709" stroke-opacity="0.25" stroke-width="0.2"/>
<path d="M79.1164 50.7645L86.4415 53.9038C87.387 54.309 88 55.2387 88 56.2673V72.3462C88 77.3289 85.5937 82.0048 81.5391 84.901L71.4946 92.0756C70.6006 92.7142 69.3995 92.7142 68.5054 92.0756L58.4609 84.901C54.4063 82.0048 52 77.3289 52 72.3462V56.2673C52 55.2387 52.613 54.309 53.5585 53.9038L60.8836 50.7645C66.7052 48.2695 73.2949 48.2695 79.1164 50.7645Z" fill="#20E33F" fill-opacity="0.75"/>
<path d="M63.752 69L68.4868 73.7348C68.6332 73.8813 68.8707 73.8813 69.0171 73.7348L78.752 64" stroke="white" stroke-width="2.5" stroke-linecap="round"/>
</svg>
